<svg version="1.1" xmlns="http://www.w3.org/2000/svg" xmlns:xlink="http://www.w3.org/1999/xlink" width="75.14974" height="100.76477" viewBox="0,0,75.14974,100.76477"><g transform="translate(-282.42513,-129.6176)"><g data-paper-data="{&quot;isPaintingLayer&quot;:true}" fill-rule="nonzero" stroke="none" stroke-width="1" stroke-linecap="butt" stroke-linejoin="miter" stroke-miterlimit="10" stroke-dasharray="" stroke-dashoffset="0" style="mix-blend-mode: normal"><path d="M298.5848,129.61761h0.74641l0.03732,0.64688c0.02488,0.36076 0.02488,1.96554 0,3.55786l-0.03732,2.89855l-0.77129,-0.03732l-0.77129,-0.03732l-0.03732,-3.35883c-0.01244,-1.84113 0,-3.42103 0.03732,-3.50811c0.03732,-0.11196 0.311,-0.16172 0.79617,-0.16172z" fill="#000000"/><path d="M301.76947,129.92861c0.37321,0.37321 0.39809,0.79617 0.04976,1.23157c-0.32344,0.41052 -0.98277,0.44784 -1.35597,0.07464c-0.36076,-0.36076 -0.33588,-1.14449 0.03732,-1.40573c0.41052,-0.29856 0.92057,-0.26124 1.26889,0.09952z" fill="#000000"/><path d="M303.59816,129.61761h0.72153v1.7665c0,0.98277 0.04976,1.84113 0.09952,1.92821c0.08708,0.1244 0.37321,-0.37321 0.57225,-0.99521c0.04976,-0.17416 0.21148,-0.21148 0.88324,-0.21148c0.94545,0 0.933,-0.01244 0.36076,1.14449c-0.39809,0.78373 -0.37321,1.04497 0.13684,2.16457c0.23636,0.51004 0.4354,1.02009 0.4354,1.11961c0,0.13684 -0.1866,0.17416 -0.80861,0.17416c-0.77129,0 -0.82104,-0.01244 -0.94545,-0.34832c-0.4354,-1.0574 -0.54737,-1.25645 -0.63445,-1.04497c-0.04976,0.11196 -0.08708,0.47272 -0.08708,0.79617l-0.01244,0.59713h-0.80861h-0.80861v-3.45835c0,-1.90333 0.03732,-3.50811 0.08708,-3.54543c0.03732,-0.04976 0.41052,-0.08708 0.80861,-0.08708z" fill="#000000"/><path d="M314.48324,129.64249l0.72153,0.03732l0.03732,1.61722c0.01244,0.88324 0.0622,1.70429 0.09952,1.80381c0.04976,0.1244 0.17416,-0.01244 0.37321,-0.41052l0.29856,-0.58469h0.74641c0.41052,0 0.74641,0.04976 0.74641,0.11196c0,0.04976 -0.17416,0.51004 -0.39809,0.99521c-0.4354,0.99521 -0.42296,1.09473 0.26124,2.48802c0.5598,1.15693 0.622,1.02009 0.65933,-1.38085l0.03732,-2.15214l0.78373,-0.03732l0.77129,-0.03732v2.31386v2.30142h-1.77893h-1.77893l-0.28613,-0.68421c-0.16172,-0.37321 -0.32344,-0.65933 -0.38564,-0.622c-0.04976,0.02488 -0.1244,0.33588 -0.17416,0.68421l-0.08708,0.63445l-0.70908,-0.03732l-0.70908,-0.03732l-0.03732,-3.35883c-0.01244,-1.84113 0,-3.43346 0.03732,-3.52055c0.03732,-0.11196 0.27368,-0.14928 0.77129,-0.1244z" fill="#000000"/><path d="M319.7454,130.53817c0,0.85837 -1.08229,1.28133 -1.60477,0.622c-0.14928,-0.1866 -0.26124,-0.46029 -0.26124,-0.60957c0,-0.14928 0.11196,-0.42296 0.26124,-0.60957c0.51004,-0.64688 1.60477,-0.23636 1.60477,0.59713z" fill="#000000"/><path d="M329.69748,130.53817c0,0.4976 -0.4354,0.94545 -0.92057,0.94545c-0.82104,0 -1.24401,-0.97032 -0.67176,-1.57989c0.54737,-0.58469 1.59233,-0.17416 1.59233,0.63445z" fill="#000000"/><path d="M342.13757,129.61761h0.74641v1.38085c0,1.36841 0,1.38085 0.28613,1.31865c0.92057,-0.23636 1.00765,-0.23636 1.39329,-0.03732c0.59713,0.32344 0.80861,0.89569 0.80861,2.1397c0,1.13205 -0.17416,1.66697 -0.67176,2.06506c-0.29856,0.2488 -0.95789,0.28613 -1.33109,0.08708c-0.1866,-0.08708 -0.29856,-0.08708 -0.42296,0.01244c-0.08708,0.07464 -0.48517,0.1244 -0.89569,0.09952l-0.72153,-0.03732l-0.03732,-3.35883c-0.01244,-1.84113 0,-3.42103 0.03732,-3.50811c0.03732,-0.11196 0.311,-0.16172 0.80861,-0.16172zM342.97106,134.71804c0.07464,0.34832 0.16172,0.4354 0.41052,0.4354c0.28613,0 0.311,-0.04976 0.34832,-0.67176c0.02488,-0.46029 -0.01244,-0.70908 -0.1244,-0.77129c-0.47272,-0.29856 -0.82104,0.26124 -0.63445,1.00765z" fill="#000000"/><path d="M283.19641,132.1305l0.75885,0.03732l0.17416,0.74641c0.34832,1.51769 0.29856,1.43061 0.4976,0.80861c0.09952,-0.311 0.21148,-0.78373 0.26124,-1.0574l0.08708,-0.4976l0.67176,-0.03732c1.02009,-0.0622 1.04497,-0.02488 0.75885,0.80861c-0.13684,0.39809 -0.5598,1.66697 -0.933,2.81146c-0.37321,1.14449 -0.73396,2.2019 -0.80861,2.3263c-0.11196,0.19904 -0.26124,0.2488 -0.80861,0.2488c-0.78373,0 -0.79617,-0.01244 -0.4354,-1.04497c0.16172,-0.4976 0.21148,-0.78373 0.1244,-0.98277c-0.0622,-0.14928 -0.19904,-0.60957 -0.32344,-1.02009c-0.11196,-0.41052 -0.33588,-1.16937 -0.4976,-1.67942c-0.16172,-0.51004 -0.29856,-1.0574 -0.29856,-1.21913c0,-0.27368 0.03732,-0.28613 0.77129,-0.2488z" fill="#000000"/><path d="M288.75713,132.10562c0.60957,0 0.77129,0.04976 1.18181,0.39809c0.94545,0.77129 1.18181,1.94066 0.63445,3.03538c-0.42296,0.82104 -0.97032,1.16937 -1.87846,1.16937c-0.57225,0 -0.79617,-0.0622 -1.13205,-0.32344c-0.622,-0.47272 -0.83349,-0.97032 -0.83349,-1.97798c0,-1.02009 0.2488,-1.56745 0.92057,-2.01529c0.29856,-0.21148 0.58469,-0.28613 1.10717,-0.28613zM288.59541,133.63575c-0.16172,0.1244 -0.21148,0.311 -0.17416,0.83349c0.03732,0.59713 0.07464,0.68421 0.311,0.72153c0.22392,0.03732 0.28613,-0.03732 0.34832,-0.39809c0.04976,-0.23636 0.04976,-0.59713 0,-0.80861c-0.09952,-0.47272 -0.21148,-0.54737 -0.48517,-0.34832z" fill="#000000"/><path d="M292.01644,132.10562h0.72153l0.03732,1.51769c0.03732,1.43061 0.04976,1.53013 0.28613,1.53013c0.23636,0 0.2488,-0.09952 0.28613,-1.53013l0.03732,-1.51769h0.79617h0.80861v1.62965c0,1.84113 -0.14928,2.33874 -0.79617,2.73682c-0.4976,0.29856 -1.72917,0.311 -2.23922,0.01244c-0.67176,-0.39809 -0.82104,-0.89569 -0.82104,-2.64974c0,-0.85837 0.03732,-1.60477 0.08708,-1.64209c0.03732,-0.04976 0.39809,-0.08708 0.79617,-0.08708z" fill="#000000"/><path d="M301.12259,132.1305l0.77129,0.03732l0.03732,1.99041c0.04976,2.6373 0.07464,2.55022 -0.83349,2.55022c-0.65933,0 -0.73396,-0.02488 -0.79617,-0.28613c-0.08708,-0.39809 -0.09952,-3.84399 -0.01244,-4.10523c0.0622,-0.1866 0.1866,-0.21148 0.83349,-0.1866z" fill="#000000"/><path d="M308.91008,132.10562c0.47272,0 0.82104,0.07464 1.09473,0.2488c0.52248,0.311 0.933,1.11961 0.88324,1.71673l-0.03732,0.46029l-1.0574,0.03732c-0.58469,0.02488 -1.10717,0.08708 -1.16937,0.14928c-0.0622,0.0622 -0.07464,0.2488 -0.02488,0.42296c0.08708,0.37321 0.5598,0.44784 0.82104,0.13684c0.17416,-0.21148 1.18181,-0.26124 1.30621,-0.0622c0.1244,0.19904 -0.33588,0.89569 -0.80861,1.20669c-0.80861,0.5598 -2.07749,0.29856 -2.62485,-0.53492c-0.311,-0.48517 -0.42296,-1.51769 -0.23636,-2.28898c0.11196,-0.48517 0.26124,-0.72153 0.65933,-1.0574c0.44784,-0.38564 0.58469,-0.4354 1.19425,-0.4354zM308.7608,133.31231c-0.14928,0.13684 -0.08708,0.41052 0.09952,0.48517c0.2488,0.09952 0.5598,-0.16172 0.47272,-0.39809c-0.0622,-0.17416 -0.42296,-0.23636 -0.57225,-0.08708z" fill="#000000"/><path d="M323.04203,132.31711c0.51004,0.2488 0.52248,0.27368 0.17416,0.70908c-0.19904,0.2488 -0.36076,0.32344 -0.75885,0.32344c-0.59713,0 -0.58469,0.1866 0.03732,0.52248c0.75885,0.39809 1.10717,0.82104 1.10717,1.31865c0,0.52248 -0.33588,1.10717 -0.77129,1.34353c-0.59713,0.33588 -2.04017,0.1244 -2.43826,-0.34832c-0.09952,-0.1244 -0.07464,-0.27368 0.1244,-0.58469c0.22392,-0.33588 0.311,-0.39809 0.58469,-0.32344c0.92057,0.22392 1.14449,-0.04976 0.38564,-0.46029c-0.75885,-0.42296 -1.03253,-0.77129 -1.03253,-1.33109c0,-0.5598 0.16172,-0.80861 0.72153,-1.15693c0.47272,-0.28613 1.28133,-0.28613 1.86601,-0.01244z" fill="#000000"/><path d="M326.68698,132.30466c0.44784,0.21148 0.48517,0.37321 0.19904,0.77129c-0.1244,0.1866 -0.311,0.27368 -0.60957,0.27368c-0.52248,0 -0.63445,0.14928 -0.28613,0.38564c1.26889,0.87081 1.21913,0.82104 1.21913,1.45549c0,0.67176 -0.22392,1.0574 -0.74641,1.33109c-0.74641,0.38564 -2.25166,0.0622 -2.33874,-0.4976c-0.02488,-0.14928 0.09952,-0.38564 0.27368,-0.54737c0.28613,-0.26124 0.34832,-0.27368 0.68421,-0.13684c0.75885,0.311 0.88324,-0.22392 0.1244,-0.5598c-0.64688,-0.29856 -0.98277,-0.73396 -0.98277,-1.26889c0,-0.5598 0.17416,-0.87081 0.65933,-1.15693c0.48517,-0.29856 1.26889,-0.32344 1.80381,-0.04976z" fill="#000000"/><path d="M327.95587,132.09318l0.78373,0.03732l0.77129,0.03732v2.23922v2.23922l-0.77129,0.03732l-0.78373,0.03732v-2.31386z" fill="#000000"/><path d="M331.21517,132.10562c0.57225,0 0.72153,0.03732 0.72153,0.19904c0,0.13684 0.07464,0.17416 0.28613,0.11196c0.14928,-0.04976 0.32344,-0.13684 0.39809,-0.19904c0.17416,-0.17416 0.97032,-0.1244 1.21913,0.0622c0.1244,0.09952 0.27368,0.36076 0.34832,0.58469c0.13684,0.4354 0.16172,3.53299 0.03732,3.73202c-0.03732,0.0622 -0.39809,0.11196 -0.79617,0.11196c-0.87081,0 -0.85837,0.03732 -0.84592,-1.60477c0,-1.25645 -0.14928,-1.62965 -0.47272,-1.20669c-0.1244,0.17416 -0.17416,0.60957 -0.17416,1.53013v1.28133h-0.73396c-0.54737,0 -0.74641,-0.04976 -0.80861,-0.19904c-0.09952,-0.26124 -0.09952,-4.21719 0.01244,-4.31671c0.03732,-0.04976 0.41052,-0.08708 0.80861,-0.08708z" fill="#000000"/><path d="M336.63905,132.2549c0.09952,0.09952 0.1866,0.09952 0.32344,-0.01244c0.09952,-0.08708 0.44784,-0.13684 0.84592,-0.11196l0.65933,0.03732l0.03732,2.43826c0.02488,2.35118 0.02488,2.4507 -0.2488,2.86122c-0.73396,1.09473 -2.46314,1.15693 -3.19711,0.1244c-0.39809,-0.54737 -0.23636,-0.79617 0.47272,-0.72153c0.311,0.03732 0.74641,0.11196 0.95789,0.14928c0.34832,0.07464 0.39809,0.04976 0.47272,-0.26124c0.11196,-0.4354 -0.08708,-0.65933 -0.42296,-0.44784c-0.57225,0.36076 -1.28133,0.02488 -1.66697,-0.77129c-0.26124,-0.57225 -0.27368,-2.06506 0,-2.59998c0.11196,-0.22392 0.32344,-0.4976 0.47272,-0.60957c0.29856,-0.2488 1.06985,-0.29856 1.29377,-0.07464zM336.29072,134.23288c0,0.622 0.09952,0.85837 0.37321,0.85837c0.26124,0 0.4354,-0.69665 0.311,-1.25645c-0.14928,-0.67176 -0.68421,-0.36076 -0.68421,0.39809z" fill="#000000"/><path d="M347.98442,132.10562c0.58469,0 0.75885,0.0622 1.15693,0.38564c0.64688,0.53492 0.84592,0.98277 0.84592,1.92821c0,1.40573 -0.77129,2.28898 -2.00285,2.28898c-0.77129,0 -1.24401,-0.23636 -1.69185,-0.82104c-0.311,-0.41052 -0.34832,-0.54737 -0.34832,-1.46793c0,-1.14449 0.22392,-1.61722 0.97032,-2.07749c0.2488,-0.16172 0.622,-0.23636 1.06985,-0.23636zM347.83513,133.61087c-0.311,0.17416 -0.32344,1.45549 -0.02488,1.56745c0.33588,0.1244 0.57225,-0.32344 0.51004,-0.933c-0.07464,-0.64688 -0.19904,-0.79617 -0.48517,-0.63445z" fill="#000000"/><path d="M350.84564,132.10562h0.73396l0.13684,0.46029c0.07464,0.26124 0.16172,0.70908 0.21148,0.99521c0.03732,0.29856 0.11196,0.53492 0.16172,0.53492c0.04976,0 0.19904,-0.37321 0.311,-0.84592c0.11196,-0.46029 0.23636,-0.90813 0.26124,-0.99521c0.02488,-0.09952 0.29856,-0.14928 0.79617,-0.14928c0.63445,0 0.74641,0.03732 0.74641,0.21148c0,0.1244 -0.4354,1.50525 -0.97032,3.08514l-0.95789,2.86122l-0.60957,0.03732c-0.933,0.0622 -0.97032,0.02488 -0.68421,-0.74641c0.29856,-0.82104 0.29856,-0.98277 -0.01244,-1.97798c-0.13684,-0.4354 -0.33588,-1.08229 -0.4354,-1.41817c-0.09952,-0.34832 -0.26124,-0.89569 -0.37321,-1.21913c-0.09952,-0.33588 -0.16172,-0.65933 -0.1244,-0.72153c0.04976,-0.0622 0.41052,-0.11196 0.80861,-0.11196z" fill="#000000"/><path d="M356.99104,132.29222c0.51004,0.22392 0.51004,0.19904 0.2488,0.69665c-0.16172,0.32344 -0.2488,0.37321 -0.58469,0.34832c-0.60957,-0.0622 -0.80861,0.1244 -0.44784,0.39809c0.16172,0.1244 0.36076,0.23636 0.44784,0.23636c0.07464,0 0.311,0.17416 0.52248,0.38564c0.65933,0.64688 0.47272,1.74161 -0.37321,2.17702c-0.67176,0.33588 -2.23922,0.09952 -2.42582,-0.38564c-0.03732,-0.09952 0.03732,-0.34832 0.16172,-0.5598c0.23636,-0.41052 0.19904,-0.39809 1.13205,-0.16172c0.46029,0.11196 0.36076,-0.39809 -0.11196,-0.59713c-0.22392,-0.08708 -0.5598,-0.28613 -0.74641,-0.46029c-0.29856,-0.2488 -0.36076,-0.38564 -0.36076,-0.88324c0,-0.60957 0.1866,-0.89569 0.80861,-1.23157c0.36076,-0.19904 1.20669,-0.17416 1.72917,0.03732z" fill="#000000"/><path d="M306.95699,140.56488h0.72153l0.01244,2.07749c0.01244,1.15693 0.02488,2.31386 0.02488,2.58754c0.01244,0.27368 0,0.933 -0.01244,1.45549l-0.02488,0.97032h-0.72153c-0.39809,0 -0.78373,-0.0622 -0.87081,-0.14928c-0.11196,-0.11196 -0.22392,-0.11196 -0.46029,0c-0.72153,0.33588 -1.38085,0.09952 -1.7665,-0.63445c-0.14928,-0.28613 -0.21148,-0.69665 -0.21148,-1.51769c0,-1.18181 0.14928,-1.60477 0.72153,-2.07749c0.28613,-0.23636 1.00765,-0.29856 1.13205,-0.09952c0.03732,0.0622 0.1866,0.1244 0.32344,0.1244c0.22392,0 0.23636,-0.09952 0.23636,-1.28133c0,-0.70908 0.03732,-1.33109 0.08708,-1.36841c0.03732,-0.04976 0.41052,-0.08708 0.80861,-0.08708zM305.61345,144.54571c-0.4354,0 -0.52248,1.41817 -0.08708,1.57989c0.42296,0.16172 0.70908,-0.78373 0.41052,-1.34353c-0.07464,-0.1244 -0.21148,-0.23636 -0.32344,-0.23636z" fill="#000000"/><path d="M317.51863,141.18689h0.79617c0.44784,0 0.80861,0.03732 0.80861,0.08708c0,0.17416 -1.11961,2.81146 -1.26889,2.98563c-0.07464,0.08708 -0.37321,0.16172 -0.67176,0.16172c-0.65933,0 -0.65933,0.01244 -0.70908,1.86601l-0.02488,1.30621h-0.74641h-0.74641l-0.03732,-1.33109c-0.02488,-0.98277 -0.07464,-1.35597 -0.22392,-1.46793c-0.09952,-0.08708 -0.22392,-0.1244 -0.27368,-0.07464c-0.04976,0.04976 -0.11196,0.72153 -0.14928,1.48037l-0.0622,1.39329l-0.70908,0.03732l-0.72153,0.03732v-2.31386v-2.30142h0.67176c0.4354,0 0.72153,0.0622 0.82104,0.1866c0.13684,0.16172 0.1866,0.16172 0.51004,0c0.60957,-0.32344 1.08229,-0.23636 1.54257,0.26124l0.42296,0.44784l0.2488,-0.84592c0.13684,-0.47272 0.311,-1.09473 0.38564,-1.39329z" fill="#000000"/><path d="M320.67841,141.83377l0.74641,0.03732l0.03732,0.54737c0.03732,0.41052 0.09952,0.54737 0.28613,0.59713c0.34832,0.09952 0.33588,1.14449 -0.01244,1.46793c-0.22392,0.19904 -0.2488,0.38564 -0.2488,1.50525c0,0.69665 -0.03732,1.35597 -0.07464,1.46793c-0.0622,0.14928 -0.2488,0.19904 -0.79617,0.19904c-0.54737,0 -0.73396,-0.04976 -0.79617,-0.19904c-0.03732,-0.11196 -0.07464,-0.77129 -0.07464,-1.46793c0,-1.11961 -0.02488,-1.30621 -0.2488,-1.50525c-0.17416,-0.16172 -0.2488,-0.38564 -0.2488,-0.75885c0,-0.41052 0.0622,-0.57225 0.2488,-0.67176c0.1866,-0.09952 0.2488,-0.26124 0.2488,-0.60957c0,-0.26124 0.03732,-0.51004 0.08708,-0.5598c0.04976,-0.04976 0.42296,-0.07464 0.84592,-0.04976z" fill="#000000"/><path d="M312.06986,144.08543c0.63445,1.23157 0.2488,2.84878 -0.80861,3.37127c-0.58469,0.29856 -1.59233,0.26124 -2.08994,-0.08708c-1.24401,-0.83349 -1.24401,-3.19711 -0.01244,-4.00571c0.94545,-0.622 2.40094,-0.26124 2.91098,0.72153zM310.00481,144.63279c-0.11196,0.09952 -0.11196,1.06985 -0.01244,1.33109c0.03732,0.11196 0.17416,0.19904 0.29856,0.19904c0.26124,0 0.37321,-0.23636 0.37321,-0.80861c0,-0.22392 -0.03732,-0.4976 -0.07464,-0.60957c-0.07464,-0.19904 -0.4354,-0.27368 -0.58469,-0.11196z" fill="#000000"/><path d="M325.7664,143.16487c0.04976,0.0622 0.11196,0.46029 0.16172,0.87081c0.03732,0.42296 0.1244,0.79617 0.1866,0.83349c0.13684,0.08708 0.47272,-0.72153 0.47272,-1.16937c0,-0.1866 0.0622,-0.41052 0.14928,-0.4976c0.17416,-0.17416 1.41817,-0.19904 1.51769,-0.03732c0.08708,0.1244 -1.74161,5.71 -1.94066,5.94636c-0.17416,0.21148 -1.20669,0.21148 -1.29377,0c-0.02488,-0.08708 0.04976,-0.46029 0.1866,-0.84592l0.22392,-0.68421l-0.64688,-2.16457c-0.34832,-1.19425 -0.622,-2.21433 -0.59713,-2.27654c0.07464,-0.1244 1.50525,-0.11196 1.57989,0.02488z" fill="#000000"/><path d="M332.33478,144.25959c0.19904,0.44784 0.23636,0.73396 0.1866,1.30621c-0.1244,1.35597 -0.84592,2.08994 -2.06506,2.08994c-1.34353,0 -2.01529,-0.75885 -2.01529,-2.27654c0,-1.09473 0.28613,-1.70429 0.99521,-2.07749c1.08229,-0.57225 2.41338,-0.13684 2.89855,0.95789zM330.15776,144.63279c-0.1244,0.1244 -0.09952,1.19425 0.03732,1.40573c0.08708,0.14928 0.16172,0.14928 0.33588,0.04976c0.23636,-0.14928 0.34832,-0.77129 0.23636,-1.24401c-0.07464,-0.28613 -0.42296,-0.41052 -0.60957,-0.21148z" fill="#000000"/><path d="M333.67831,143.05291h0.74641v1.34353c0,0.97032 0.04976,1.41817 0.17416,1.59233c0.33588,0.4354 0.46029,0.04976 0.48517,-1.45549l0.02488,-1.41817h0.80861h0.80861v1.67942c-0.01244,1.44305 -0.04976,1.74161 -0.2488,2.08994c-0.29856,0.51004 -0.88324,0.77129 -1.70429,0.77129c-0.73396,0 -1.23157,-0.23636 -1.61722,-0.77129c-0.2488,-0.36076 -0.28613,-0.57225 -0.33588,-1.94066c-0.01244,-0.83349 0,-1.60477 0.03732,-1.70429c0.04976,-0.13684 0.26124,-0.1866 0.82104,-0.1866z" fill="#000000"/><path d="M289.82698,159.0011c0.36076,0.03732 0.37321,0.0622 0.41052,0.69665c0.02488,0.41052 -0.03732,0.79617 -0.14928,1.04497c-0.11196,0.21148 -0.19904,0.65933 -0.19904,0.98277c0,0.32344 -0.04976,0.63445 -0.1244,0.67176c-0.0622,0.03732 -0.1244,0.29856 -0.1244,0.5598c0,0.26124 -0.08708,0.5598 -0.1866,0.67176c-0.11196,0.11196 -0.1866,0.41052 -0.1866,0.80861c0,0.33588 -0.04976,0.65933 -0.1244,0.69665c-0.0622,0.03732 -0.1244,0.28613 -0.1244,0.54737c0,0.2488 -0.08708,0.57225 -0.1866,0.70908c-0.27368,0.36076 -0.27368,10.56164 0,10.92241c0.13684,0.1866 0.1866,0.59713 0.1866,1.51769c0,0.72153 0.04976,1.31865 0.1244,1.35597c0.07464,0.03732 0.1244,0.41052 0.1244,0.83349c0,0.41052 0.07464,0.89569 0.17416,1.06985c0.09952,0.1866 0.23636,0.58469 0.32344,0.89569c0.07464,0.311 0.22392,0.72153 0.32344,0.90813c0.09952,0.19904 0.17416,0.48517 0.17416,0.64688c0,0.16172 0.1866,0.67176 0.42296,1.13205c0.23636,0.47272 0.59713,1.21913 0.80861,1.66697c0.21148,0.46029 0.5598,0.98277 0.77129,1.18181c0.21148,0.21148 0.4354,0.4976 0.4976,0.64688c0.07464,0.21148 0.21148,0.28613 0.48517,0.28613c0.34832,0 0.37321,0.03732 0.37321,0.4354v0.4354h-0.70908c-0.73396,0 -1.15693,-0.22392 -1.15693,-0.622c0,-0.11196 -0.19904,-0.38564 -0.4354,-0.622c-0.23636,-0.23636 -0.4354,-0.52248 -0.4354,-0.64688c0,-0.1244 -0.04976,-0.22392 -0.09952,-0.22392c-0.11196,0 -0.52248,-0.85837 -0.52248,-1.09473c0,-0.0622 -0.04976,-0.14928 -0.09952,-0.17416c-0.16172,-0.0622 -0.89569,-1.59233 -0.89569,-1.87846c0,-0.27368 -0.17416,-0.89569 -0.4354,-1.51769c-0.311,-0.74641 -0.4354,-1.26889 -0.4354,-1.87846c-0.01244,-0.33588 -0.08708,-0.74641 -0.1866,-0.92057c-0.1244,-0.21148 -0.17416,-0.70908 -0.1866,-1.51769c0,-0.65933 -0.04976,-1.24401 -0.1244,-1.28133c-0.17416,-0.09952 -0.17416,-11.96737 0,-12.06689c0.07464,-0.03732 0.1244,-0.28613 0.1244,-0.53492c0.01244,-0.2488 0.08708,-0.59713 0.1866,-0.77129c0.09952,-0.17416 0.17416,-0.57225 0.1866,-0.89569c0,-0.32344 0.0622,-0.622 0.1244,-0.65933c0.07464,-0.03732 0.1244,-0.28613 0.1244,-0.54737c0,-0.2488 0.08708,-0.57225 0.1866,-0.70908c0.09952,-0.1244 0.1866,-0.4976 0.1866,-0.82104c0,-0.32344 0.0622,-0.622 0.1244,-0.65933c0.07464,-0.03732 0.1244,-0.311 0.1244,-0.60957c0,-0.28613 0.03732,-0.57225 0.08708,-0.622c0.04976,-0.04976 0.26124,-0.07464 0.47272,-0.04976z" fill="#000000"/><path d="M304.56848,159.58579c0,0.11196 0.28613,0.44784 0.622,0.74641c0.34832,0.311 0.622,0.63445 0.622,0.72153c0,0.08708 0.311,0.4976 0.68421,0.90813c0.37321,0.41052 0.68421,0.80861 0.68421,0.87081c0,0.07464 0.13684,0.28613 0.311,0.47272c0.17416,0.1866 0.311,0.39809 0.311,0.48517c0,0.08708 0.07464,0.16172 0.16172,0.16172c0.1866,0 0.53492,0.33588 0.75885,0.73396c0.4354,0.74641 1.39329,1.85358 1.77893,2.06506c0.4354,0.2488 0.54737,0.37321 0.70908,0.80861c0.14928,0.37321 0.52248,0.92057 0.72153,1.04497c0.14928,0.08708 0.33588,0.08708 0.63445,-0.02488c0.22392,-0.08708 0.54737,-0.14928 0.72153,-0.14928c0.44784,0 1.45549,-0.68421 1.55501,-1.0574c0.0622,-0.23636 -0.02488,-0.42296 -0.37321,-0.83349c-0.311,-0.36076 -0.44784,-0.63445 -0.44784,-0.92057c0,-0.21148 -0.08708,-0.5598 -0.1866,-0.74641c-0.09952,-0.19904 -0.1866,-0.44784 -0.1866,-0.54737c0,-0.09952 -0.13684,-0.41052 -0.311,-0.68421c-0.27368,-0.44784 -0.29856,-0.622 -0.311,-1.95309c0,-0.83349 -0.04976,-1.48037 -0.1244,-1.53013c-0.0622,-0.03732 -0.1244,-0.19904 -0.1244,-0.36076c0,-0.14928 -0.0622,-0.33588 -0.13684,-0.41052c-0.19904,-0.19904 -0.02488,-0.41052 0.32344,-0.41052c0.1866,0 0.36076,0.11196 0.44784,0.27368l0.14928,0.28613l0.1244,-0.28613c0.1244,-0.26124 0.1866,-0.27368 1.8287,-0.27368c0.933,0 1.74161,0.03732 1.79138,0.08708c0.17416,0.1866 1.26889,0.53492 1.65453,0.53492c0.21148,0 0.4354,0.04976 0.47272,0.1244c0.03732,0.0622 0.19904,0.1244 0.34832,0.1244c0.14928,0 0.72153,0.22392 1.26889,0.4976c0.54737,0.27368 1.08229,0.4976 1.18181,0.4976c0.51004,0.02488 3.22199,1.75405 3.95595,2.5129c0.311,0.33588 0.63445,0.59713 0.72153,0.59713c0.09952,0 0.38564,0.19904 0.63445,0.4354c0.2488,0.23636 0.51004,0.4354 0.57225,0.4354c0.0622,0 0.42296,0.29856 0.80861,0.65933c0.38564,0.37321 0.80861,0.70908 0.92057,0.74641c0.11196,0.03732 0.36076,0.29856 0.53492,0.58469c0.17416,0.27368 0.36076,0.4976 0.42296,0.4976c0.13684,0 0.26124,-0.4354 0.26124,-0.90813c0,-0.1866 0.04976,-0.4354 0.11196,-0.5598c0.0622,-0.11196 0.21148,-0.41052 0.311,-0.64688c0.11196,-0.23636 0.2488,-0.52248 0.311,-0.622c0.04976,-0.09952 0.14928,-0.29856 0.22392,-0.4354c0.0622,-0.13684 0.21148,-0.42296 0.311,-0.622c0.11196,-0.21148 0.4354,-0.84592 0.72153,-1.43061c0.38564,-0.78373 0.77129,-1.33109 1.49281,-2.08994c0.97032,-1.00765 0.99521,-1.02009 1.60477,-1.02009c0.33588,0 0.64688,0.04976 0.68421,0.09952c0.03732,0.0622 -0.47272,0.63445 -1.11961,1.28133c-1.03253,1.02009 -1.25645,1.31865 -1.74161,2.35118c-0.311,0.64688 -0.64688,1.31865 -0.74641,1.49281c-0.17416,0.28613 -0.54737,1.06985 -0.72153,1.49281c-0.03732,0.09952 -0.1866,0.34832 -0.311,0.5598c-0.19904,0.29856 -0.2488,0.60957 -0.2488,1.51769c-0.01244,1.20669 -0.07464,1.53013 -0.29856,1.53013c-0.33588,0 -1.19425,-0.44784 -1.24401,-0.64688c-0.03732,-0.1244 -0.19904,-0.27368 -0.37321,-0.33588c-0.36076,-0.13684 -0.58469,-0.48517 -0.58469,-0.88324c0,-0.13684 -0.09952,-0.29856 -0.21148,-0.33588c-0.1244,-0.04976 -0.52248,-0.34832 -0.88324,-0.68421c-0.37321,-0.32344 -0.73396,-0.59713 -0.82104,-0.59713c-0.07464,0 -0.37321,-0.22392 -0.63445,-0.4976c-0.26124,-0.27368 -0.5598,-0.4976 -0.64688,-0.4976c-0.07464,0 -0.33588,-0.22392 -0.5598,-0.51004c-0.22392,-0.27368 -0.57225,-0.58469 -0.78373,-0.68421c-0.19904,-0.09952 -0.64688,-0.37321 -0.99521,-0.622c-0.67176,-0.47272 -2.21433,-1.29377 -2.43826,-1.29377c-0.07464,0 -0.53492,-0.1866 -1.02009,-0.42296c-1.0574,-0.4976 -1.62965,-0.70908 -2.1397,-0.78373c-0.19904,-0.02488 -0.48517,-0.09952 -0.622,-0.14928c-0.933,-0.36076 -1.20669,-0.4354 -1.95309,-0.48517c-0.5598,-0.02488 -0.95789,0.01244 -1.24401,0.13684c-0.22392,0.09952 -0.51004,0.21148 -0.622,0.26124c-0.27368,0.08708 -0.28613,0.54737 -0.04976,0.88324c0.08708,0.13684 0.1866,0.622 0.22392,1.08229c0.02488,0.51004 0.1244,0.92057 0.2488,1.0574c0.09952,0.1244 0.22392,0.38564 0.27368,0.59713c0.04976,0.19904 0.13684,0.622 0.19904,0.92057c0.07464,0.32344 0.29856,0.73396 0.5598,1.02009c0.23636,0.27368 0.4354,0.59713 0.4354,0.73396c0,0.37321 0.72153,1.11961 1.08229,1.11961c0.41052,0 0.78373,0.21148 0.78373,0.46029c0,0.23636 -0.90813,1.15693 -1.14449,1.15693c-0.09952,0 -0.28613,-0.11196 -0.41052,-0.2488c-0.34832,-0.38564 -0.63445,-0.41052 -1.29377,-0.0622c-0.34832,0.17416 -0.75885,0.311 -0.90813,0.311c-0.16172,0 -0.69665,0.21148 -1.20669,0.46029c-0.78373,0.39809 -0.95789,0.54737 -1.10717,0.933c-0.09952,0.26124 -0.2488,0.47272 -0.33588,0.47272c-0.22392,0 -0.92057,0.37321 -1.02009,0.54737c-0.0622,0.08708 -0.1866,0.19904 -0.28613,0.23636c-0.09952,0.03732 0.03732,0.07464 0.32344,0.07464c0.27368,0.01244 0.5598,0.07464 0.63445,0.14928c0.07464,0.07464 0.79617,0.09952 2.10237,0.04976c1.08229,-0.03732 3.03538,-0.07464 4.32915,-0.09952c2.07749,-0.02488 2.36362,0 2.47558,0.1866c0.09952,0.14928 0.08708,0.26124 -0.02488,0.39809c-0.13684,0.16172 -0.4976,0.19904 -2.11482,0.19904c-1.44305,0.01244 -2.01529,0.04976 -2.25166,0.1866c-0.46029,0.26124 -4.42867,0.26124 -5.06312,0c-0.27368,-0.11196 -0.83349,-0.1866 -1.46793,-0.1866c-1.25645,0 -1.45549,-0.14928 -1.14449,-0.82104c0.11196,-0.23636 0.36076,-0.4976 0.54737,-0.58469c0.19904,-0.07464 0.44784,-0.23636 0.57225,-0.34832c0.1244,-0.1244 0.60957,-0.39809 1.06985,-0.60957c0.65933,-0.311 0.87081,-0.48517 0.98277,-0.79617c0.1244,-0.32344 0.11196,-0.4354 -0.07464,-0.69665c-0.1244,-0.17416 -0.32344,-0.52248 -0.4354,-0.78373c-0.1244,-0.2488 -0.27368,-0.46029 -0.34832,-0.46029c-0.17416,0 -1.35597,-1.11961 -1.35597,-1.29377c0,-0.07464 -0.22392,-0.41052 -0.4976,-0.74641c-0.27368,-0.32344 -0.4976,-0.64688 -0.4976,-0.70908c0,-0.0622 -0.0622,-0.11196 -0.14928,-0.11196c-0.1866,0 -0.72153,-0.4976 -0.72153,-0.68421c0,-0.07464 -0.13684,-0.27368 -0.311,-0.4354c-0.17416,-0.16172 -0.311,-0.37321 -0.311,-0.47272c0,-0.09952 -0.27368,-0.46029 -0.622,-0.79617c-0.33588,-0.33588 -0.622,-0.68421 -0.622,-0.75885c0,-0.08708 -0.2488,-0.41052 -0.5598,-0.70908c-0.79617,-0.78373 -1.25645,-1.74161 -0.97032,-2.02774c0.28613,-0.29856 1.15693,0.09952 1.15693,0.52248z" fill="#000000"/><path d="M353.33365,158.97623c0.19904,0 0.38564,0.04976 0.42296,0.11196c0.03732,0.0622 0.27368,0.14928 0.52248,0.19904c0.33588,0.0622 0.42296,0.11196 0.311,0.22392c-0.07464,0.07464 -0.13684,0.23636 -0.13684,0.34832c0,0.11196 -0.08708,0.27368 -0.1866,0.36076c-0.11196,0.08708 -0.1866,0.36076 -0.1866,0.63445c0,0.41052 0.04976,0.51004 0.311,0.60957c0.26124,0.09952 0.311,0.19904 0.311,0.60957c0,0.27368 -0.04976,0.53492 -0.1244,0.57225c-0.07464,0.04976 -0.1244,2.18945 -0.1244,6.00857c-0.01244,5.0258 -0.03732,5.97124 -0.1866,6.17028c-0.14928,0.19904 -0.1866,0.67176 -0.1866,2.1397c0,1.13205 -0.04976,1.92821 -0.1244,1.97798c-0.0622,0.03732 -0.1244,0.26124 -0.1244,0.4976c0,0.22392 -0.13684,0.65933 -0.311,0.94545c-0.17416,0.29856 -0.311,0.68421 -0.311,0.85837c0,0.17416 -0.08708,0.42296 -0.1866,0.54737c-0.09952,0.13684 -0.1866,0.37321 -0.1866,0.52248c0,0.16172 -0.04976,0.32344 -0.1244,0.36076c-0.0622,0.03732 -0.1244,0.1866 -0.1244,0.33588c0,0.13684 -0.07464,0.39809 -0.17416,0.57225c-0.09952,0.1866 -0.23636,0.58469 -0.32344,0.89569c-0.08708,0.311 -0.17416,0.63445 -0.19904,0.72153c-0.02488,0.08708 -0.23636,0.27368 -0.48517,0.41052c-0.23636,0.14928 -0.4354,0.32344 -0.4354,0.41052c0,0.17416 -1.02009,1.19425 -1.19425,1.19425c-0.07464,0 -0.26124,0.13684 -0.42296,0.311c-0.16172,0.17416 -0.38564,0.311 -0.4976,0.311c-0.2488,0 -0.65933,0.42296 -0.53492,0.53492c0.03732,0.04976 0.63445,0.08708 1.30621,0.08708c0.67176,0 1.21913,0.03732 1.21913,0.07464c0,0.13684 -0.5598,0.53492 -0.75885,0.54737c-0.11196,0 -0.27368,0.08708 -0.36076,0.1866c-0.08708,0.11196 -0.311,0.1866 -0.48517,0.17416c-0.77129,-0.0622 -0.98277,0.01244 -1.0574,0.32344c-0.07464,0.29856 -0.11196,0.311 -1.16937,0.311c-0.60957,0 -1.15693,0.0622 -1.23157,0.13684c-0.07464,0.07464 -0.32344,0.11196 -0.54737,0.08708c-0.34832,-0.02488 -0.4354,-0.08708 -0.46029,-0.36076c-0.0622,-0.53492 0.46029,-0.85837 1.36841,-0.85837c0.83349,0 0.95789,-0.1244 0.73396,-0.75885c-0.14928,-0.44784 -0.01244,-0.73396 0.34832,-0.73396c0.1244,0 0.34832,-0.13684 0.51004,-0.311c0.16172,-0.17416 0.34832,-0.311 0.42296,-0.311c0.07464,0 0.28613,-0.13684 0.47272,-0.311c0.1866,-0.17416 0.41052,-0.311 0.4976,-0.311c0.22392,0 0.97032,-0.75885 0.97032,-1.00765c0,-0.11196 0.17416,-0.28613 0.38564,-0.39809c0.41052,-0.1866 0.69665,-0.74641 0.82104,-1.55501c0.03732,-0.22392 0.11196,-0.4354 0.17416,-0.47272c0.0622,-0.03732 0.11196,-0.1866 0.11196,-0.34832c0,-0.14928 0.08708,-0.38564 0.1866,-0.52248c0.09952,-0.1244 0.1866,-0.36076 0.1866,-0.51004c0,-0.14928 0.04976,-0.29856 0.11196,-0.33588c0.04976,-0.03732 0.13684,-0.29856 0.17416,-0.58469c0.03732,-0.28613 0.1866,-0.68421 0.32344,-0.87081c0.14928,-0.19904 0.26124,-0.53492 0.26124,-0.77129c0,-0.22392 0.08708,-0.52248 0.1866,-0.65933c0.13684,-0.1866 0.17416,-0.65933 0.1866,-2.10237c0,-1.08229 0.04976,-1.92821 0.1244,-2.00285c0.17416,-0.17416 0.17416,-10.74824 0,-10.92241c-0.07464,-0.07464 -0.1244,-0.78373 -0.1244,-1.65453c0,-1.19425 -0.04976,-1.60477 -0.19904,-1.84113c-0.11196,-0.17416 -0.16172,-0.41052 -0.11196,-0.5598c0.04976,-0.17416 0.1866,-0.2488 0.4354,-0.2488z" fill="#000000"/><path d="M337.43522,182.9856h4.45355l0.19904,0.311c0.1244,0.19904 0.17416,0.42296 0.1244,0.622c-0.07464,0.28613 -0.13684,0.32344 -0.58469,0.28613c-0.27368,-0.01244 -0.5598,-0.09952 -0.63445,-0.1866c-0.19904,-0.23636 -1.70429,-0.22392 -1.79138,0.02488c-0.0622,0.16172 0.17416,0.74641 0.68421,1.67942c0.41052,0.74641 0.51004,1.02009 0.51004,1.34353c0,0.21148 0.0622,0.42296 0.1244,0.46029c0.07464,0.03732 0.1244,0.28613 0.1244,0.53492c0,0.2488 0.08708,0.57225 0.1866,0.69665c0.27368,0.36076 0.27368,6.07077 0,6.29469c-0.09952,0.08708 -0.1866,0.311 -0.1866,0.51004c0,0.42296 -0.13684,0.52248 -0.5598,0.41052c-0.28613,-0.07464 -0.311,-0.13684 -0.311,-0.72153c0,-0.36076 0.04976,-0.69665 0.1244,-0.77129c0.17416,-0.17416 0.1866,-4.88896 0.01244,-5.06312c-0.07464,-0.07464 -0.13684,-0.34832 -0.13684,-0.59713c0,-0.2488 -0.08708,-0.52248 -0.1866,-0.60957c-0.09952,-0.08708 -0.1866,-0.34832 -0.1866,-0.59713c0,-0.41052 -0.92057,-2.5129 -1.14449,-2.61242c-0.0622,-0.02488 -0.09952,-0.17416 -0.09952,-0.33588c0,-0.19904 -0.13684,-0.37321 -0.44784,-0.54737c-0.38564,-0.23636 -0.63445,-0.26124 -2.1397,-0.26124c-0.933,0 -1.77893,0.04976 -1.86601,0.11196c-0.23636,0.13684 -0.27368,0.88324 -0.0622,1.29377c0.13684,0.27368 0.16172,0.92057 0.1244,3.17222c-0.04976,2.7617 -0.13684,3.66983 -0.4354,4.21719c-0.08708,0.14928 -0.14928,0.42296 -0.14928,0.60957c0,0.36076 -0.42296,0.92057 -0.70908,0.92057c-0.08708,0 -0.16172,0.04976 -0.16172,0.1244c0,0.0622 -0.17416,0.311 -0.38564,0.5598l-0.38564,0.4354h-1.8287h-1.84113l-0.16172,-0.34832c-0.09952,-0.1866 -0.29856,-0.47272 -0.44784,-0.64688c-0.14928,-0.17416 -0.36076,-0.59713 -0.48517,-0.933c-0.11196,-0.34832 -0.26124,-0.73396 -0.32344,-0.87081c-0.23636,-0.4976 0.01244,-8.21046 0.26124,-8.43438c0.29856,-0.26124 1.45549,-0.46029 2.6373,-0.46029c0.74641,0 1.46793,-0.0622 1.60477,-0.1244c0.1244,-0.07464 0.58469,-0.16172 0.99521,-0.1866c0.42296,-0.02488 0.82104,-0.09952 0.89569,-0.17416c0.09952,-0.09952 1.59233,-0.13684 4.5904,-0.13684zM332.44674,184.36646c-0.08708,-0.1244 -0.1244,-0.1244 -0.19904,-0.01244c-0.04976,0.07464 -0.03732,0.19904 0.03732,0.27368c0.0622,0.0622 0.14928,0.07464 0.1866,0.01244c0.03732,-0.0622 0.02488,-0.1866 -0.02488,-0.27368z" fill="#000000"/><path d="M312.21915,184.42866c0.13684,0.09952 0.36076,0.17416 0.51004,0.17416c0.51004,0 0.58469,0.47272 0.64688,3.83155c0.03732,2.72438 0.02488,3.18466 -0.14928,3.44591c-0.11196,0.16172 -0.19904,0.4976 -0.19904,0.73396c0,0.23636 -0.04976,0.47272 -0.1244,0.51004c-0.0622,0.03732 -0.1244,0.17416 -0.1244,0.29856c0,0.36076 -0.46029,1.29377 -0.77129,1.59233c-0.16172,0.13684 -0.39809,0.28613 -0.53492,0.311c-0.13684,0.02488 -0.26124,0.14928 -0.28613,0.29856c-0.02488,0.14928 -0.21148,0.42296 -0.41052,0.622c-0.36076,0.33588 -0.4354,0.36076 -1.33109,0.33588c-0.77129,-0.02488 -1.08229,-0.09952 -1.61722,-0.37321c-0.37321,-0.1866 -0.72153,-0.46029 -0.77129,-0.59713c-0.04976,-0.13684 -0.2488,-0.38564 -0.42296,-0.54737c-0.53492,-0.4976 -0.85837,-1.24401 -0.78373,-1.81625c0.04976,-0.311 0,-0.63445 -0.11196,-0.88324c-0.14928,-0.311 -0.17416,-0.87081 -0.1244,-3.04782c0.02488,-1.46793 0.08708,-3.0105 0.13684,-3.44591c0.08708,-0.74641 0.07464,-0.77129 -0.21148,-0.77129c-0.14928,-0.01244 -0.77129,-0.03732 -1.36841,-0.07464c-0.87081,-0.0622 -1.14449,-0.03732 -1.36841,0.1244c-0.1866,0.13684 -0.54737,0.19904 -1.0574,0.19904c-0.72153,0 -0.78373,0.02488 -0.85837,0.311c-0.03732,0.17416 -0.1244,0.311 -0.1866,0.311c-0.0622,0 -0.11196,0.11196 -0.11196,0.23636c0,0.13684 -0.04976,0.27368 -0.11196,0.32344c-0.22392,0.13684 -0.51004,0.84592 -0.51004,1.29377c0,0.2488 -0.08708,0.5598 -0.1866,0.68421c-0.09952,0.13684 -0.1866,0.36076 -0.1866,0.51004c0,0.14928 -0.0622,0.32344 -0.14928,0.41052c-0.07464,0.07464 -0.13684,0.52248 -0.13684,1.06985c0.01244,0.65933 -0.03732,0.97032 -0.16172,1.08229c-0.2488,0.21148 -0.2488,2.43826 0.01244,2.92342c0.09952,0.19904 0.1866,0.51004 0.1866,0.68421c0,0.17416 0.13684,0.59713 0.311,0.933c0.38564,0.74641 0.38564,0.89569 0.03732,1.03253c-0.4354,0.16172 -0.97032,-0.1244 -0.97032,-0.52248c0,-0.09952 -0.08708,-0.2488 -0.1866,-0.33588c-0.09952,-0.08708 -0.1866,-0.36076 -0.1866,-0.60957c0,-0.2488 -0.0622,-0.52248 -0.13684,-0.59713c-0.26124,-0.26124 0.0622,-6.10809 0.36076,-6.40665c0.07464,-0.07464 0.14928,-0.27368 0.14928,-0.42296c0,-0.16172 0.0622,-0.32344 0.1244,-0.36076c0.07464,-0.03732 0.1244,-0.26124 0.1244,-0.47272c0,-0.22392 0.08708,-0.5598 0.1866,-0.75885c0.09952,-0.1866 0.1866,-0.4354 0.1866,-0.52248c0,-0.09952 0.0622,-0.17416 0.1244,-0.17416c0.07464,0 0.1244,-0.13684 0.1244,-0.311c0,-0.29856 -0.01244,-0.29856 -1.20669,-0.33588c-1.06985,-0.03732 -1.21913,-0.0622 -1.25645,-0.27368c-0.02488,-0.1244 0,-0.27368 0.0622,-0.32344c0.04976,-0.0622 1.10717,-0.1244 2.33874,-0.13684c1.61722,-0.01244 2.31386,-0.07464 2.5129,-0.1866c0.21148,-0.1244 1.11961,-0.17416 3.85643,-0.19904c4.5282,-0.04976 5.99612,0.01244 6.31957,0.22392z" fill="#000000"/><path d="M352.64945,188.83245c1.0574,0 1.35597,0.03732 1.55501,0.21148c0.4976,0.4354 0.21148,1.89089 -0.4976,2.55022c-0.13684,0.1244 -0.2488,0.311 -0.2488,0.39809c0,0.17416 -0.5598,0.72153 -0.95789,0.933c-0.16172,0.07464 -0.28613,0.21148 -0.28613,0.29856c0,0.08708 -0.87081,1.02009 -1.94066,2.07749c-1.0574,1.0574 -2.00285,2.08994 -2.08994,2.30142c-0.14928,0.36076 -0.13684,0.38564 0.38564,0.84592c0.28613,0.26124 0.53492,0.54737 0.53492,0.63445c0,0.08708 0.22392,0.39809 0.4976,0.69665c0.27368,0.29856 0.4976,0.60957 0.4976,0.68421c0,0.08708 0.11196,0.2488 0.26124,0.38564c0.13684,0.1244 0.36076,0.46029 0.4976,0.75885c0.13684,0.28613 0.38564,0.59713 0.57225,0.68421c0.17416,0.08708 0.36076,0.2488 0.41052,0.34832c0.04976,0.09952 0.14928,0.311 0.22392,0.46029c0.08708,0.16172 0.14928,0.5598 0.14928,0.89569c0,0.38564 0.0622,0.65933 0.1866,0.75885c0.09952,0.08708 0.1866,0.311 0.1866,0.51004c0,0.34832 -0.01244,0.36076 -0.67176,0.36076c-0.4354,0 -0.74641,0.0622 -0.87081,0.1866c-0.09952,0.09952 -0.34832,0.1866 -0.5598,0.1866c-0.19904,0 -0.41052,0.0622 -0.44784,0.1244c-0.03732,0.0622 -0.47272,0.1244 -0.94545,0.1244c-0.69665,0 -0.98277,0.0622 -1.43061,0.311c-0.53492,0.29856 -0.622,0.311 -2.97318,0.311h-2.42582v-0.4354v-0.4354h2.16457c1.19425,0 2.18945,-0.03732 2.21433,-0.09952c0.1244,-0.28613 0.92057,-0.52248 1.77893,-0.52248c0.51004,0 0.95789,-0.0622 0.99521,-0.1244c0.03732,-0.07464 0.23636,-0.1244 0.42296,-0.1244c0.19904,0 0.42296,-0.07464 0.51004,-0.17416c0.07464,-0.09952 0.32344,-0.19904 0.53492,-0.22392c0.34832,-0.03732 0.39809,-0.08708 0.4354,-0.42296c0.02488,-0.23636 -0.03732,-0.44784 -0.14928,-0.54737c-0.11196,-0.08708 -0.19904,-0.26124 -0.19904,-0.38564c0,-0.13684 -0.08708,-0.23636 -0.21148,-0.23636c-0.2488,0 -0.65933,-0.34832 -0.65933,-0.5598c0,-0.08708 -0.08708,-0.22392 -0.1866,-0.311c-0.09952,-0.08708 -0.1866,-0.2488 -0.1866,-0.36076c0,-0.1244 -0.13684,-0.34832 -0.311,-0.51004c-0.17416,-0.16172 -0.311,-0.37321 -0.311,-0.46029c0,-0.09952 -0.19904,-0.37321 -0.4354,-0.622c-0.23636,-0.2488 -0.4354,-0.51004 -0.4354,-0.59713c0,-0.07464 -0.13684,-0.27368 -0.29856,-0.42296c-0.16172,-0.16172 -0.33588,-0.47272 -0.37321,-0.70908c-0.0622,-0.311 -0.14928,-0.42296 -0.32344,-0.42296c-0.311,0 -0.33588,-0.54737 -0.0622,-1.06985c0.09952,-0.1866 1.06985,-1.24401 2.17702,-2.35118c1.09473,-1.10717 1.99041,-2.08994 1.99041,-2.2019c0,-0.23636 0.36076,-0.5598 0.68421,-0.60957c0.13684,-0.02488 0.34832,-0.23636 0.46029,-0.47272c0.11196,-0.22392 0.32344,-0.53492 0.46029,-0.68421c0.14928,-0.14928 0.26124,-0.37321 0.26124,-0.48517c0,-0.11196 0.0622,-0.23636 0.1244,-0.27368c0.34832,-0.21148 -0.14928,-0.311 -1.56745,-0.311c-0.94545,0 -1.54257,-0.04976 -1.54257,-0.1244c0,-0.07464 0.08708,-0.1244 0.1866,-0.1244c0.11196,0 0.22392,-0.08708 0.26124,-0.1866c0.04976,-0.09952 0.21148,-0.1866 0.37321,-0.1866c0.16172,0 0.29856,-0.0622 0.29856,-0.1244c0,-0.07464 0.52248,-0.1244 1.30621,-0.1244z" fill="#000000"/><path d="M284.66434,190.07646h0.85837c0.54737,0 0.89569,0.0622 0.98277,0.16172c0.07464,0.08708 0.33588,0.14928 0.58469,0.14928c0.23636,-0.01244 0.4976,0.04976 0.57225,0.14928c0.09952,0.11196 0.48517,0.16172 1.25645,0.16172c0.933,0 1.16937,0.03732 1.43061,0.2488c0.34832,0.27368 0.68421,0.34832 0.4354,0.09952c-0.08708,-0.08708 -0.14928,-0.19904 -0.14928,-0.2488c0,-0.16172 0.47272,-0.11196 0.52248,0.04976c0.03732,0.09952 0.41052,0.14928 1.10717,0.16172c2.23922,0.02488 2.18945,0.01244 2.41338,0.48517c0.11196,0.23636 0.1866,0.5598 0.16172,0.72153c-0.02488,0.23636 -0.1244,0.28613 -0.5598,0.32344c-0.47272,0.03732 -0.53492,0.01244 -0.60957,-0.27368c-0.07464,-0.311 -0.11196,-0.32344 -1.03253,-0.32344c-0.84592,0 -0.98277,-0.03732 -1.29377,-0.32344c-0.36076,-0.33588 -0.622,-0.32344 -0.34832,0c0.23636,0.27368 -0.37321,0.39809 -0.75885,0.16172c-0.19904,-0.13684 -0.65933,-0.1866 -1.64209,-0.19904c-0.75885,0 -1.41817,-0.0622 -1.49281,-0.13684c-0.0622,-0.0622 -0.311,-0.1244 -0.53492,-0.1244h-0.39809l0.32344,0.64688c0.17416,0.36076 0.41052,0.85837 0.52248,1.08229c0.22392,0.4976 1.87846,2.17702 2.36362,2.41338c0.17416,0.07464 0.38564,0.28613 0.46029,0.44784c0.13684,0.26124 0.39809,0.46029 0.92057,0.70908c0.09952,0.04976 0.36076,0.22392 0.57225,0.38564c0.21148,0.16172 0.4354,0.28613 0.48517,0.28613c0.41052,0 0.75885,0.98277 0.4354,1.18181c-0.0622,0.03732 -0.1244,0.16172 -0.1244,0.26124c0,0.09952 -0.13684,0.311 -0.311,0.47272c-0.23636,0.21148 -0.311,0.41052 -0.311,0.78373c0,0.29856 -0.07464,0.57225 -0.1866,0.65933c-0.09952,0.08708 -0.1866,0.26124 -0.1866,0.38564c0,0.13684 -0.04976,0.23636 -0.1244,0.23636c-0.0622,0 -0.1244,0.09952 -0.1244,0.23636c0,0.1244 -0.08708,0.29856 -0.1866,0.38564c-0.09952,0.08708 -0.1866,0.26124 -0.1866,0.38564c0,0.13684 -0.04976,0.23636 -0.1244,0.23636c-0.0622,0 -0.1244,0.09952 -0.1244,0.23636c0,0.1244 -0.08708,0.29856 -0.1866,0.38564c-0.11196,0.09952 -0.1866,0.36076 -0.1866,0.69665c0,0.28613 -0.04976,0.57225 -0.1244,0.60957c-0.0622,0.03732 -0.1244,0.41052 -0.1244,0.82104c0,0.63445 0.03732,0.73396 0.23636,0.73396c0.1244,0 0.29856,0.08708 0.38564,0.1866c0.13684,0.17416 0.4354,0.1866 2.04017,0.1244c1.03253,-0.04976 1.92821,-0.13684 1.99041,-0.19904c0.07464,-0.0622 0.63445,-0.11196 1.26889,-0.11196c0.88324,0 1.16937,-0.04976 1.30621,-0.19904c0.1866,-0.22392 0.67176,-0.13684 1.04497,0.1866c0.23636,0.21148 0.78373,0.53492 1.18181,0.68421c0.09952,0.04976 0.36076,0.1866 0.5598,0.311c0.21148,0.13684 0.46029,0.2488 0.57225,0.2488c0.09952,0.01244 0.32344,0.14928 0.48517,0.32344c0.21148,0.22392 0.42296,0.311 0.77129,0.311c0.27368,0 0.57225,0.08708 0.67176,0.1866c0.11196,0.09952 0.41052,0.1866 0.67176,0.1866c0.26124,0 0.52248,0.04976 0.5598,0.1244c0.03732,0.0622 0.26124,0.1244 0.47272,0.1244c0.22392,0.01244 0.53492,0.08708 0.70908,0.1866c0.17416,0.09952 0.52248,0.17416 0.77129,0.1866c0.2488,0 0.4976,0.0622 0.53492,0.1244c0.03732,0.0622 0.42296,0.1244 0.83349,0.1244c0.89569,0 1.34353,0.29856 1.34353,0.89569c0,0.29856 0.04976,0.34832 0.34832,0.34832c0.1866,0 0.44784,0.08708 0.57225,0.1866c0.19904,0.14928 0.68421,0.1866 2.27654,0.1866h2.02774l0.07464,0.29856c0.03732,0.17416 0.03732,0.37321 -0.01244,0.4354c-0.09952,0.17416 -4.86407,0.1866 -4.97604,0.01244c-0.03732,-0.07464 -0.27368,-0.1244 -0.51004,-0.1244c-0.23636,0 -0.68421,-0.13684 -0.99521,-0.311c-0.44784,-0.2488 -0.72153,-0.311 -1.45549,-0.311c-0.54737,0 -0.97032,-0.0622 -1.0574,-0.14928c-0.11196,-0.11196 -0.1866,-0.11196 -0.28613,-0.01244c-0.11196,0.11196 -0.08708,0.23636 0.08708,0.48517c0.1244,0.1866 0.29856,0.4354 0.37321,0.57225c0.08708,0.13684 0.34832,0.46029 0.59713,0.70908c0.2488,0.2488 0.44784,0.53492 0.44784,0.622c0,0.21148 1.57989,1.75405 1.79138,1.75405c0.08708,0 0.311,0.17416 0.51004,0.37321c0.19904,0.21148 0.4354,0.37321 0.52248,0.37321c0.1866,0 0.60957,0.22392 0.94545,0.48517c0.22392,0.1866 0.29856,1.00765 0.08708,1.00765c-0.0622,0 -0.1244,0.09952 -0.1244,0.21148c0,0.2488 -0.34832,0.65933 -0.57225,0.65933c-0.19904,0 -1.66697,1.44305 -1.66697,1.65453c0,0.08708 -0.19904,0.34832 -0.4354,0.58469c-0.23636,0.23636 -0.4354,0.52248 -0.4354,0.63445c0,0.1244 -0.0622,0.26124 -0.1244,0.29856c-0.07464,0.03732 -0.1244,0.1244 -0.1244,0.19904c0,0.14928 1.65453,0.14928 1.81625,-0.01244c0.08708,-0.08708 0.64688,-0.1244 1.43061,-0.09952l1.29377,0.03732l0.03732,0.73396c0.03732,0.70908 -0.17416,1.44305 -0.47272,1.62965c-0.07464,0.03732 -0.1244,0.17416 -0.1244,0.29856c0,0.1244 -0.07464,0.29856 -0.17416,0.37321c-0.08708,0.07464 -0.13684,0.27368 -0.09952,0.44784c0.02488,0.17416 -0.03732,0.44784 -0.14928,0.622c-0.11196,0.16172 -0.19904,0.38564 -0.19904,0.47272c0,0.09952 -0.08708,0.2488 -0.1866,0.33588c-0.09952,0.08708 -0.14928,0.19904 -0.11196,0.26124c0.03732,0.0622 -0.02488,0.28613 -0.1244,0.51004c-0.11196,0.21148 -0.19904,0.64688 -0.19904,0.97032c0,0.36076 -0.07464,0.64688 -0.1866,0.74641c-0.11196,0.08708 -0.1866,0.4354 -0.21148,0.97032l-0.03732,0.83349h-0.54737h-0.5598l-0.01244,-0.53492c-0.01244,-0.29856 0.0622,-0.58469 0.14928,-0.67176c0.08708,-0.07464 0.16172,-0.37321 0.16172,-0.65933c0,-0.29856 0.0622,-0.5598 0.14928,-0.58469c0.07464,-0.02488 0.16172,-0.37321 0.1866,-0.79617c0.02488,-0.39809 0.09952,-0.74641 0.16172,-0.77129c0.07464,-0.02488 0.1244,-0.22392 0.1244,-0.46029c0,-0.22392 0.08708,-0.47272 0.1866,-0.5598c0.09952,-0.08708 0.1866,-0.23636 0.1866,-0.32344c0,-0.09952 0.0622,-0.17416 0.1244,-0.17416c0.07464,0 0.1244,-0.27368 0.1244,-0.60957c0,-0.42296 0.04976,-0.63445 0.1866,-0.68421c0.09952,-0.03732 0.1866,-0.14928 0.1866,-0.26124c0,-0.09952 0.0622,-0.29856 0.1244,-0.4354c0.07464,-0.13684 0.17416,-0.36076 0.23636,-0.48517c0.07464,-0.1244 0.08708,-0.27368 0.04976,-0.311c-0.13684,-0.13684 -0.87081,-0.07464 -1.21913,0.09952c-0.22392,0.1244 -0.80861,0.17416 -1.87846,0.1866c-1.41817,0 -1.55501,-0.01244 -1.66697,-0.2488c-0.09952,-0.1866 -0.08708,-0.33588 0.04976,-0.63445c0.11196,-0.21148 0.19904,-0.51004 0.19904,-0.67176c0,-0.16172 0.0622,-0.32344 0.1244,-0.36076c0.07464,-0.03732 0.1244,-0.16172 0.1244,-0.27368c0,-0.11196 0.22392,-0.38564 0.4976,-0.622c0.27368,-0.23636 0.4976,-0.52248 0.4976,-0.64688c0,-0.23636 1.54257,-1.77893 1.91577,-1.91577c0.22392,-0.08708 0.22392,-0.09952 0.01244,-0.33588c-0.1244,-0.13684 -0.28613,-0.2488 -0.37321,-0.2488c-0.07464,0 -0.27368,-0.13684 -0.4354,-0.311c-0.16172,-0.17416 -0.37321,-0.311 -0.48517,-0.311c-0.22392,0 -2.25166,-2.02774 -2.25166,-2.2641c0,-0.09952 -0.19904,-0.36076 -0.4354,-0.59713c-0.23636,-0.23636 -0.4354,-0.4976 -0.4354,-0.59713c0,-0.09952 -0.13684,-0.28613 -0.311,-0.42296c-0.28613,-0.22392 -0.311,-0.32344 -0.311,-1.15693c0,-0.51004 0.0622,-0.95789 0.1244,-0.99521c0.1866,-0.11196 -0.72153,-0.5598 -1.13205,-0.5598c-0.1866,0 -0.4976,-0.08708 -0.68421,-0.1866c-0.19904,-0.09952 -0.44784,-0.14928 -0.5598,-0.1244c-0.11196,0.03732 -0.37321,-0.07464 -0.58469,-0.2488c-0.19904,-0.17416 -0.46029,-0.311 -0.5598,-0.311c-0.11196,0 -0.22392,-0.04976 -0.27368,-0.11196c-0.08708,-0.14928 -0.79617,-0.51004 -0.99521,-0.51004c-0.08708,0 -0.22392,-0.08708 -0.311,-0.1866c-0.09952,-0.1244 -0.38564,-0.1866 -0.79617,-0.1866c-0.36076,0 -0.73396,-0.08708 -0.87081,-0.1866c-0.311,-0.23636 -1.20669,-0.23636 -1.51769,0c-0.1866,0.13684 -0.72153,0.17416 -2.67462,0.1866c-1.61722,0 -2.47558,-0.04976 -2.56266,-0.13684c-0.07464,-0.07464 -0.32344,-0.17416 -0.5598,-0.22392l-0.41052,-0.08708l-0.03732,-1.36841c-0.02488,-1.11961 0,-1.40573 0.16172,-1.54257c0.09952,-0.08708 0.1866,-0.34832 0.1866,-0.59713c0,-0.46029 0.34832,-1.39329 0.52248,-1.39329c0.04976,0 0.09952,-0.07464 0.09952,-0.17416c0,-0.09952 0.19904,-0.5598 0.44784,-1.03253c0.23636,-0.46029 0.47272,-1.08229 0.51004,-1.36841c0.03732,-0.29856 0.14928,-0.59713 0.23636,-0.67176c0.2488,-0.19904 0.21148,-0.4354 -0.09952,-0.73396c-0.311,-0.28613 -0.933,-0.622 -1.14449,-0.622c-0.1866,0 -0.52248,-0.39809 -0.63445,-0.73396c-0.03732,-0.14928 -0.16172,-0.26124 -0.27368,-0.26124c-0.28613,0 -2.35118,-2.15214 -2.64974,-2.7617c-0.13684,-0.28613 -0.29856,-0.622 -0.36076,-0.72153c-0.26124,-0.48517 -0.36076,-0.72153 -0.4354,-1.08229c-0.04976,-0.21148 -0.19904,-0.48517 -0.33588,-0.60957c-0.13684,-0.1244 -0.23636,-0.37321 -0.23636,-0.63445z" fill="#000000"/><path d="M319.34732,196.40847c0.09952,0.0622 0.14928,0.28613 0.1244,0.58469l-0.03732,0.48517l-2.04017,0.03732c-1.18181,0.01244 -2.10237,-0.02488 -2.16457,-0.08708c-0.21148,-0.21148 0.01244,-0.75885 0.32344,-0.75885c0.14928,-0.01244 0.41052,-0.08708 0.58469,-0.1866c0.34832,-0.19904 2.92342,-0.26124 3.20954,-0.07464z" fill="#000000"/><path d="M338.03234,197.70223c0.29856,0.02488 0.311,0.04976 0.37321,1.20669c0.0622,1.10717 0.07464,1.18181 0.33588,1.21913c0.19904,0.02488 0.32344,-0.03732 0.39809,-0.2488c0.29856,-0.73396 1.61722,-1.74161 2.43826,-1.86601c0.36076,-0.04976 0.41052,0.47272 0.07464,0.78373c-0.13684,0.1244 -0.28613,0.23636 -0.32344,0.23636c-0.16172,0 -1.30621,1.04497 -1.30621,1.18181c0,0.16172 -0.42296,0.68421 -0.54737,0.68421c-0.04976,0 -0.27368,0.13684 -0.4976,0.311c-0.52248,0.39809 -0.98277,0.41052 -1.16937,0.02488c-0.07464,-0.14928 -0.14928,-0.59713 -0.1866,-0.98277c-0.04976,-0.79617 -0.13684,-0.97032 -0.36076,-0.74641c-0.08708,0.08708 -0.2488,0.14928 -0.36076,0.14928c-0.1244,0 -0.32344,0.13684 -0.46029,0.311c-0.14928,0.1866 -0.37321,0.311 -0.57225,0.311c-0.27368,0 -0.32344,-0.04976 -0.32344,-0.34832c0.01244,-0.37321 0.44784,-0.94545 0.84592,-1.06985c0.14928,-0.04976 0.29856,-0.1866 0.33588,-0.29856c0.03732,-0.11196 0.27368,-0.36076 0.53492,-0.54737c0.26124,-0.19904 0.58469,-0.33588 0.77129,-0.311z" fill="#e24e4e"/><path d="M298.09964,198.41132c0.22392,0.11196 0.2488,0.2488 0.2488,1.18181c0,1.06985 0.04976,1.16937 0.47272,0.94545c0.11196,-0.0622 0.42296,-0.21148 0.68421,-0.32344c0.2488,-0.11196 0.46029,-0.23636 0.46029,-0.28613c0,-0.08708 0.88324,-0.39809 1.14449,-0.39809c0.08708,0 0.32344,-0.08708 0.52248,-0.1866c0.44784,-0.23636 0.69665,-0.16172 0.69665,0.21148c-0.01244,0.39809 -0.28613,0.72153 -0.622,0.72153c-0.27368,0 -1.02009,0.36076 -1.09473,0.52248c-0.02488,0.0622 -0.11196,0.09952 -0.19904,0.09952c-0.08708,0 -0.42296,0.13684 -0.74641,0.311c-0.32344,0.17416 -0.64688,0.311 -0.72153,0.311c-0.0622,0 -0.28613,0.13684 -0.4976,0.311c-0.67176,0.57225 -1.59233,0.29856 -1.59233,-0.46029c0,-0.19904 0.13684,-0.60957 0.311,-0.92057c0.311,-0.54737 0.41052,-1.21913 0.21148,-1.34353c-0.22392,-0.13684 -1.54257,0.39809 -1.94066,0.78373c-0.4976,0.48517 -0.98277,0.4976 -1.04497,0.03732c-0.0622,-0.44784 0.90813,-1.39329 1.43061,-1.39329c0.21148,0 0.42296,-0.03732 0.46029,-0.09952c0.08708,-0.14928 1.53013,-0.17416 1.81625,-0.02488z" fill="#e24e4e"/><path d="M327.13482,201.04862c0.311,0.02488 0.39809,0.09952 0.42296,0.36076c0.02488,0.17416 -0.04976,0.38564 -0.14928,0.48517c-0.11196,0.08708 -0.19904,0.2488 -0.19904,0.36076c0,0.22392 -0.60957,0.88324 -0.82104,0.88324c-0.0622,0 -0.32344,0.13684 -0.57225,0.311c-0.42296,0.28613 -0.5598,0.311 -1.95309,0.311c-0.85837,0 -1.51769,-0.04976 -1.56745,-0.1244c-0.03732,-0.07464 -0.26124,-0.1244 -0.47272,-0.1244c-0.22392,-0.01244 -0.53492,-0.08708 -0.70908,-0.1866c-0.17416,-0.09952 -0.57225,-0.17416 -0.89569,-0.1866c-0.32344,0 -0.622,-0.0622 -0.65933,-0.1244c-0.1244,-0.19904 -0.78373,-0.14928 -1.15693,0.08708c-0.1866,0.1244 -0.5598,0.39809 -0.82104,0.622c-0.27368,0.22392 -0.54737,0.41052 -0.622,0.41052c-0.0622,0 -0.2488,0.1244 -0.41052,0.27368c-0.41052,0.38564 -2.89855,0.80861 -2.89855,0.48517c0,-0.07464 -0.07464,-0.13684 -0.17416,-0.13684c-0.19904,0 -0.90813,-0.36076 -1.15693,-0.58469c-0.23636,-0.21148 -0.21148,-0.89569 0.03732,-0.99521c0.11196,-0.03732 0.57225,0.1244 1.06985,0.39809c0.74641,0.39809 0.90813,0.44784 1.16937,0.32344c0.17416,-0.07464 0.4976,-0.13684 0.73396,-0.13684c0.23636,0 0.46029,-0.0622 0.4976,-0.1244c0.04976,-0.07464 0.29856,-0.27368 0.5598,-0.4354c0.26124,-0.16172 0.58469,-0.42296 0.72153,-0.5598c0.64688,-0.69665 2.25166,-0.99521 3.0105,-0.5598c0.17416,0.09952 0.57225,0.17416 0.89569,0.1866c0.32344,0 0.622,0.04976 0.65933,0.1244c0.03732,0.0622 0.26124,0.1244 0.47272,0.1244c0.22392,0.01244 0.53492,0.08708 0.70908,0.1866c0.53492,0.311 1.66697,0.23636 2.33874,-0.14928c0.67176,-0.37321 1.14449,-0.77129 1.14449,-0.94545c0,-0.07464 0.09952,-0.23636 0.21148,-0.36076c0.13684,-0.16172 0.33588,-0.22392 0.58469,-0.19904z" fill="#000000"/><path d="M341.25433,205.02945c0.44784,0.04976 0.51004,0.63445 0.1244,1.04497c-0.14928,0.16172 -0.34832,0.29856 -0.42296,0.29856c-0.07464,0 -0.2488,0.09952 -0.38564,0.21148c-0.32344,0.28613 -1.02009,0.65933 -1.21913,0.65933c-0.08708,0 -0.26124,0.11196 -0.38564,0.2488c-0.311,0.33588 -0.89569,0.622 -1.30621,0.622c-0.17416,0 -0.4354,0.08708 -0.57225,0.1866c-0.1244,0.09952 -0.46029,0.1866 -0.74641,0.1866c-0.37321,0 -0.58469,0.07464 -0.79617,0.311c-0.22392,0.23636 -0.42296,0.311 -0.82104,0.311c-0.28613,0 -0.58469,0.07464 -0.65933,0.17416c-0.08708,0.09952 -0.37321,0.21148 -0.63445,0.2488c-0.27368,0.03732 -0.73396,0.11196 -1.02009,0.14928c-0.29856,0.04976 -0.65933,0.16172 -0.82104,0.27368c-0.22392,0.14928 -0.34832,0.14928 -0.58469,0.04976c-0.64688,-0.29856 -0.23636,-1.14449 0.54737,-1.14449c0.2488,0 0.5598,-0.08708 0.68421,-0.1866c0.13684,-0.09952 0.46029,-0.1866 0.70908,-0.1866c0.26124,0 0.51004,-0.0622 0.54737,-0.1244c0.03732,-0.07464 0.29856,-0.1244 0.5598,-0.1244c0.32344,0 0.59713,-0.09952 0.84592,-0.311c0.23636,-0.19904 0.52248,-0.311 0.79617,-0.311c0.23636,0 0.53492,-0.08708 0.67176,-0.1866c0.1244,-0.09952 0.4354,-0.1866 0.67176,-0.1866c0.27368,0 0.622,-0.13684 0.933,-0.37321c0.27368,-0.19904 0.622,-0.42296 0.77129,-0.48517c0.13684,-0.0622 0.29856,-0.1866 0.34832,-0.2488c0.03732,-0.07464 0.16172,-0.13684 0.26124,-0.13684c0.11196,0 0.37321,-0.13684 0.59713,-0.311c0.22392,-0.17416 0.47272,-0.311 0.53492,-0.311c0.07464,0 0.19904,-0.08708 0.28613,-0.19904c0.09952,-0.09952 0.311,-0.17416 0.48517,-0.14928z" fill="#000000"/><path d="M334.08883,211.6227c0.03732,0.11196 0.27368,0.29856 0.51004,0.41052c0.26124,0.1244 0.44784,0.311 0.44784,0.4354c0,0.1244 0.08708,0.28613 0.1866,0.37321c0.09952,0.08708 0.1866,0.23636 0.1866,0.33588c0,0.08708 0.11196,0.29856 0.26124,0.44784c0.22392,0.23636 0.38564,0.53492 0.65933,1.20669c0.03732,0.09952 0.1866,0.34832 0.311,0.5598c0.13684,0.19904 0.2488,0.46029 0.2488,0.57225c0.01244,0.11196 0.09952,0.27368 0.19904,0.36076c0.09952,0.08708 0.1866,0.311 0.1866,0.51004c0,0.1866 0.0622,0.38564 0.1244,0.42296c0.07464,0.03732 0.1244,0.19904 0.1244,0.33588c0,0.34832 0.68421,1.75405 0.99521,2.02774c0.14928,0.13684 0.2488,0.38564 0.2488,0.63445c0,0.22392 0.03732,0.42296 0.09952,0.44784c0.16172,0.07464 0.52248,0.85837 0.52248,1.15693c0,0.14928 0.08708,0.34832 0.1866,0.4354c0.1244,0.09952 0.1866,0.38564 0.1866,0.82104c0,0.36076 0.0622,0.69665 0.1244,0.73396c0.07464,0.03732 0.1244,0.37321 0.1244,0.73396c0,0.4354 0.0622,0.72153 0.1866,0.82104c0.13684,0.11196 0.1866,0.4354 0.1866,1.31865c0,0.69665 0.04976,1.16937 0.1244,1.16937c0.07464,0 0.1244,0.2488 0.1244,0.54737c0,0.32344 0.07464,0.59713 0.1866,0.69665c0.09952,0.08708 0.1866,0.26124 0.1866,0.38564c0,0.13684 0.0622,0.23636 0.1244,0.23636c0.07464,0 0.1244,0.13684 0.1244,0.311c0,0.28613 -0.04976,0.311 -0.5598,0.311c-0.4354,0 -0.58469,-0.04976 -0.63445,-0.21148c-0.03732,-0.1244 -0.1244,-0.32344 -0.1866,-0.4354c-0.0622,-0.1244 -0.11196,-0.41052 -0.11196,-0.64688c0,-0.22392 -0.08708,-0.48517 -0.1866,-0.57225c-0.13684,-0.11196 -0.1866,-0.4354 -0.1866,-1.31865c0,-0.63445 -0.04976,-1.19425 -0.1244,-1.23157c-0.0622,-0.03732 -0.1244,-0.37321 -0.1244,-0.73396c0,-0.4354 -0.0622,-0.72153 -0.1866,-0.82104c-0.1244,-0.09952 -0.1866,-0.38564 -0.1866,-0.82104c0,-0.36076 -0.04976,-0.69665 -0.1244,-0.73396c-0.0622,-0.03732 -0.1244,-0.23636 -0.1244,-0.42296c0,-0.19904 -0.08708,-0.42296 -0.1866,-0.51004c-0.09952,-0.08708 -0.1866,-0.26124 -0.1866,-0.38564c0,-0.13684 -0.04976,-0.23636 -0.1244,-0.23636c-0.0622,0 -0.1244,-0.16172 -0.1244,-0.36076c0,-0.19904 -0.07464,-0.42296 -0.17416,-0.4976c-0.09952,-0.08708 -0.26124,-0.32344 -0.37321,-0.54737c-0.11196,-0.22392 -0.2488,-0.48517 -0.311,-0.58469c-0.32344,-0.58469 -0.38564,-0.77129 -0.38564,-1.04497c0,-0.17416 -0.04976,-0.33588 -0.11196,-0.38564c-0.0622,-0.03732 -0.16172,-0.2488 -0.21148,-0.46029c-0.07464,-0.37321 -0.17416,-0.60957 -0.4354,-1.09473c-0.0622,-0.09952 -0.22392,-0.42296 -0.36076,-0.70908c-0.13684,-0.28613 -0.29856,-0.5598 -0.37321,-0.59713c-0.0622,-0.03732 -0.1244,-0.17416 -0.1244,-0.29856c0,-0.1244 -0.13684,-0.34832 -0.311,-0.51004c-0.17416,-0.16172 -0.311,-0.36076 -0.311,-0.4354c0,-0.311 -0.39809,-0.933 -0.60957,-0.933c-0.23636,0 -0.63445,-0.42296 -0.63445,-0.68421c0,-0.08708 -0.04976,-0.21148 -0.1244,-0.2488c-0.17416,-0.11196 -0.14928,-0.77129 0.03732,-0.84592c0.4354,-0.1866 0.80861,0.03732 0.99521,0.5598z" fill="#000000"/></g></g></svg>